<svg width="20" height="20" viewBox="0 0 20 20" fill="none" xmlns="http://www.w3.org/2000/svg">
<path d="M16.875 15.625L3.75 2.5" stroke="#898989" stroke-width="1.875" stroke-miterlimit="10" stroke-linecap="round"/>
<path d="M15.625 9.37503V8.14261C15.625 7.80628 15.3664 7.51761 15.0301 7.50082C14.9456 7.49674 14.8611 7.50987 14.7818 7.5394C14.7026 7.56894 14.6301 7.61426 14.5688 7.67262C14.5076 7.73099 14.4588 7.80118 14.4255 7.87894C14.3922 7.95671 14.375 8.04043 14.375 8.12503V9.37503C14.3752 9.69536 14.3401 10.0147 14.2703 10.3274C14.2675 10.3401 14.2679 10.3534 14.2715 10.366C14.2751 10.3785 14.2818 10.39 14.291 10.3993L15.1734 11.2817C15.1827 11.2909 15.1941 11.2977 15.2067 11.3014C15.2193 11.3051 15.2326 11.3056 15.2454 11.3028C15.2582 11.3 15.2701 11.294 15.28 11.2854C15.2898 11.2768 15.2974 11.2658 15.302 11.2535C15.5162 10.6505 15.6255 10.0151 15.625 9.37503ZM10 13.75C8.84082 13.7463 7.73017 13.2842 6.9105 12.4645C6.09083 11.6449 5.62871 10.5342 5.625 9.37503V8.14261C5.625 7.80628 5.36641 7.51761 5.03008 7.50082C4.94557 7.49674 4.86112 7.50987 4.78184 7.5394C4.70255 7.56894 4.63009 7.61426 4.56884 7.67262C4.50759 7.73099 4.45883 7.80118 4.42551 7.87894C4.39219 7.95671 4.37501 8.04043 4.375 8.12503V9.37503C4.375 12.2657 6.56641 14.6532 9.375 14.9653V16.875H7.51758C7.18125 16.875 6.89258 17.1336 6.87578 17.47C6.87171 17.5545 6.88484 17.6389 6.91437 17.7182C6.9439 17.7975 6.98922 17.8699 7.04759 17.9312C7.10595 17.9924 7.17614 18.0412 7.25391 18.0745C7.33167 18.1078 7.4154 18.125 7.5 18.125H12.4824C12.8187 18.125 13.1074 17.8664 13.1242 17.5301C13.1283 17.4456 13.1152 17.3612 13.0856 17.2819C13.0561 17.2026 13.0108 17.1301 12.9524 17.0689C12.894 17.0076 12.8239 16.9589 12.7461 16.9255C12.6683 16.8922 12.5846 16.875 12.5 16.875H10.625V14.9653C11.3364 14.8861 12.026 14.671 12.6562 14.3317C12.6776 14.32 12.696 14.3036 12.7099 14.2836C12.7238 14.2636 12.7328 14.2407 12.7363 14.2166C12.7397 14.1925 12.7375 14.1679 12.7298 14.1448C12.7221 14.1218 12.7091 14.1008 12.6918 14.0836L11.973 13.3653C11.9559 13.3482 11.9339 13.3369 11.91 13.3328C11.8862 13.3288 11.8617 13.3322 11.8398 13.3426C11.2638 13.6117 10.6357 13.7507 10 13.75ZM10.0445 1.87504C9.5139 1.8653 8.98959 1.99144 8.52145 2.24147C8.05332 2.49151 7.65691 2.85712 7.36992 3.30355C7.35056 3.33361 7.3421 3.36939 7.34593 3.40494C7.34977 3.44048 7.36569 3.47363 7.39102 3.49886L12.9918 9.1016C13.0027 9.11248 13.0167 9.11988 13.0318 9.12285C13.047 9.12583 13.0627 9.12425 13.0769 9.11831C13.0912 9.11238 13.1033 9.10235 13.1119 9.08951C13.1205 9.07666 13.125 9.06157 13.125 9.04613V5.03558C13.125 3.32035 11.7578 1.89847 10.0445 1.87504Z" fill="#898989"/>
<path d="M7.0082 8.39821C6.99726 8.38732 6.98333 8.37993 6.96818 8.37695C6.95303 8.37398 6.93734 8.37556 6.92309 8.38149C6.90884 8.38743 6.89667 8.39745 6.88811 8.4103C6.87955 8.42314 6.87499 8.43824 6.875 8.45368V9.33571C6.87561 10.1683 7.20479 10.9671 7.79102 11.5584C8.17547 11.9581 8.6611 12.2462 9.19623 12.3919C9.73137 12.5377 10.296 12.5357 10.8301 12.3861C10.8432 12.3824 10.8552 12.3753 10.8648 12.3655C10.8743 12.3557 10.8811 12.3436 10.8845 12.3303C10.8879 12.3171 10.8878 12.3032 10.8841 12.29C10.8805 12.2768 10.8734 12.2648 10.8637 12.2552L7.0082 8.39821Z" fill="#898989"/>
</svg>
