<svg width="20" height="20" viewBox="0 0 20 20" fill="none" xmlns="http://www.w3.org/2000/svg">
<path d="M10.3274 13.0357C12.004 13.0357 13.3632 11.6766 13.3632 10V4.9405C13.3632 3.2639 12.004 1.90479 10.3274 1.90479C8.65084 1.90479 7.29172 3.2639 7.29172 4.9405V10C7.29172 11.6766 8.65084 13.0357 10.3274 13.0357ZM15.387 7.97621H14.881C14.6015 7.97621 14.3751 8.20263 14.3751 8.48217V10C14.3751 12.3654 12.3358 14.2633 9.92299 14.028C7.82013 13.8228 6.27982 11.9324 6.27982 9.81978V8.48217C6.27982 8.20263 6.05341 7.97621 5.77387 7.97621H5.26792C4.98838 7.97621 4.76196 8.20263 4.76196 8.48217V9.75211C4.76196 12.5867 6.78482 15.1136 9.56851 15.4975V16.5774H7.79768C7.51814 16.5774 7.29172 16.8038 7.29172 17.0834V17.5893C7.29172 17.8688 7.51814 18.0953 7.79768 18.0953H12.8572C13.1367 18.0953 13.3632 17.8688 13.3632 17.5893V17.0834C13.3632 16.8038 13.1367 16.5774 12.8572 16.5774H11.0864V15.5095C13.7967 15.1377 15.8929 12.8112 15.8929 10V8.48217C15.8929 8.20263 15.6665 7.97621 15.387 7.97621Z" fill="#898989"/>
</svg>
