<svg width="20" height="20" viewBox="0 0 20 20" fill="none" xmlns="http://www.w3.org/2000/svg">
<path fill-rule="evenodd" clip-rule="evenodd" d="M3.18578 5.18076C2.22896 6.52896 1.66663 8.17425 1.66663 9.9515C1.66663 11.0865 1.80829 11.9023 2.02163 12.564C2.53413 14.1407 3.57496 15.444 4.77329 16.564C5.70163 17.4307 6.92163 17.0957 7.73163 16.2907C9.24079 14.7907 8.14829 13.159 6.96413 11.9823C6.5812 11.6019 6.06558 11.385 5.52587 11.3772C4.98617 11.3695 4.46452 11.5715 4.07079 11.9407C4.05544 11.9551 4.03809 11.9726 4.01929 11.9916C3.89107 12.1213 3.69529 12.3194 3.60663 12.049C3.45579 11.5815 3.33329 10.944 3.33329 9.95234C3.33329 8.63788 3.71959 7.41189 4.38609 6.38107L3.18578 5.18076ZM15.1372 11.4753C15.4299 11.5687 15.701 11.7266 15.9291 11.9407C15.978 11.9865 16.0216 12.0343 16.0612 12.0775C16.2085 12.2387 16.2994 12.3381 16.3933 12.049C16.5441 11.5823 16.6666 10.9432 16.6666 9.95234C16.6666 6.3015 13.6866 3.33317 9.99996 3.33317C9.10897 3.33317 8.25926 3.50655 7.48291 3.82103L6.22523 2.56335C7.35889 1.98975 8.64183 1.6665 9.99996 1.6665C14.5975 1.6665 18.3333 5.37067 18.3333 9.95234C18.3333 11.0873 18.1925 11.9032 17.9783 12.5632C17.8391 12.9915 17.661 13.3997 17.4513 13.7894L15.1372 11.4753ZM11.7443 13.7393C11.3941 14.5618 11.42 15.4471 12.2683 16.2907C12.9723 16.991 13.986 17.3351 14.8487 16.8437L11.7443 13.7393Z" fill="#898989"/>
<path d="M17.5 16.6667L3.33337 2.5" stroke="#898989" stroke-width="1.88" stroke-miterlimit="10" stroke-linecap="round"/>
</svg>
