<svg width="20" height="20" viewBox="0 0 20 20" fill="none" xmlns="http://www.w3.org/2000/svg">
<path d="M16.6666 9.95234C16.6666 6.3015 13.6866 3.33317 9.99996 3.33317C6.31329 3.33317 3.33329 6.3015 3.33329 9.95234C3.33329 10.944 3.45579 11.5815 3.60663 12.049C3.70829 12.359 3.95079 12.0532 4.07079 11.9407C4.46452 11.5715 4.98617 11.3695 5.52587 11.3772C6.06558 11.385 6.5812 11.6019 6.96413 11.9823C8.14829 13.159 9.24079 14.7907 7.73163 16.2907C6.92163 17.0957 5.70163 17.4307 4.77329 16.564C3.57496 15.444 2.53413 14.1407 2.02163 12.564C1.80829 11.9023 1.66663 11.0865 1.66663 9.9515C1.66663 5.37067 5.40246 1.6665 9.99996 1.6665C14.5975 1.6665 18.3333 5.37067 18.3333 9.95234C18.3333 11.0873 18.1925 11.9032 17.9783 12.5632C17.4658 14.1407 16.425 15.444 15.2266 16.5632C14.2983 17.4307 13.0783 17.0965 12.2683 16.2907C10.76 14.7907 11.8516 13.159 13.035 11.9823C13.4179 11.6017 13.9337 11.3846 14.4736 11.3768C15.0135 11.3691 15.5354 11.5712 15.9291 11.9407C16.16 12.1573 16.2741 12.4157 16.3933 12.049C16.5441 11.5823 16.6666 10.9432 16.6666 9.95234Z" fill="#898989"/>
</svg>
