<svg width="20" height="20" viewBox="0 0 20 20" fill="none" xmlns="http://www.w3.org/2000/svg">
<path fill-rule="evenodd" clip-rule="evenodd" d="M2.94256 4.93781C2.80022 5.02774 2.66715 5.13377 2.54621 5.25471C2.11644 5.68448 1.875 6.26737 1.875 6.87516V13.1252C1.875 13.7329 2.11644 14.3158 2.54621 14.7456C2.97598 15.1754 3.55888 15.4168 4.16667 15.4168H11.25C11.8294 15.4168 12.3862 15.1974 12.8093 14.8046L2.94256 4.93781ZM17.8855 14.2239C18.0328 14.049 18.125 13.8208 18.125 13.556V6.13766C18.125 5.23766 17.0617 4.76183 16.3908 5.35933L13.5417 7.89683V6.87516C13.5417 6.26737 13.3002 5.68448 12.8705 5.25471C12.4407 4.82494 11.8578 4.5835 11.25 4.5835H8.24509L17.8855 14.2239Z" fill="#898989"/>
<path d="M17.5 16.6667L3.33337 2.5" stroke="#898989" stroke-width="1.88" stroke-miterlimit="10" stroke-linecap="round"/>
</svg>
