<svg width="20" height="20" viewBox="0 0 20 20" fill="none" xmlns="http://www.w3.org/2000/svg">
<path d="M4.16667 4.5835C3.55888 4.5835 2.97598 4.82494 2.54621 5.25471C2.11644 5.68448 1.875 6.26737 1.875 6.87516V13.1252C1.875 13.733 2.11644 14.3158 2.54621 14.7456C2.97598 15.1754 3.55888 15.4168 4.16667 15.4168H11.25C11.8578 15.4168 12.4407 15.1754 12.8705 14.7456C13.3002 14.3158 13.5417 13.733 13.5417 13.1252V11.7968L16.3908 14.3343C17.0617 14.9318 18.125 14.4552 18.125 13.556V6.13766C18.125 5.23766 17.0617 4.76183 16.3908 5.35933L13.5417 7.89683V6.87516C13.5417 6.26737 13.3002 5.68448 12.8705 5.25471C12.4407 4.82494 11.8578 4.5835 11.25 4.5835H4.16667Z" fill="#898989"/>
</svg>
